<svg xmlns="http://www.w3.org/2000/svg" width="48.397" height="40.22"><path d="M48.071 19.568l-.127 1.039-.242 2.036c-.717 6.066-.809 6.845-2.53 7.673a32.907 32.907 0 01-3.523 1.448c-1.886.673-2.833 1.011-5.583 3.796-4.229 4.28-9.65 4.684-11.798 4.659l-.07-.001-.07.001-.176.001c-2.248 0-7.504-.493-11.622-4.66-2.751-2.786-3.698-3.124-5.584-3.797a32.648 32.648 0 01-3.523-1.447c-1.72-.828-1.813-1.606-2.529-7.67l-.242-2.039c-.043-.363-.086-.709-.127-1.039-.458-3.703-.709-5.742 1.197-6.944.347-.219.746-.435 1.208-.684 1.587-.857 3.76-2.029 5.575-4.362C8.742 6.931 13.653 0 24.198 0S39.655 6.93 40.09 7.577c1.815 2.333 3.987 3.506 5.575 4.362.462.25.862.465 1.209.685 1.907 1.202 1.655 3.241 1.197 6.944zM24.198 2.005c-8.703 0-13.174 5.282-14.069 6.469 3.254 3.386 8.431 5.388 14.069 5.388 5.639 0 10.817-2.002 14.071-5.39-.898-1.212-5.3-6.467-14.071-6.467zm21.61 12.315c-.29-.183-.662-.383-1.092-.616-1.588-.858-3.957-2.14-5.985-4.625-3.399 3.481-8.738 5.534-14.532 5.534-5.793 0-11.132-2.052-14.532-5.534-2.028 2.484-4.396 3.767-5.985 4.625-.43.232-.802.433-1.092.616-.79.498-.688 1.674-.277 5.001.041.332.084.679.127 1.045.09.746.17 1.424.243 2.042.663 5.614.73 5.772 1.408 6.098 1.434.69 2.44 1.049 3.328 1.366 2.035.726 3.263 1.165 6.335 4.275 3.689 3.735 8.469 4.094 10.351 4.064h.187c1.885.029 6.662-.33 10.351-4.064 3.072-3.11 4.3-3.549 6.335-4.275.888-.317 1.894-.676 3.328-1.366.678-.326.745-.484 1.408-6.101l.242-2.04.128-1.045c.412-3.326.514-4.502-.276-5zM33.109 25.479c-2.438 0-4.421-1.975-4.421-4.401 0-2.427 1.983-4.402 4.421-4.402s4.421 1.975 4.421 4.402c.001 2.426-1.983 4.401-4.421 4.401zm0-8.052c-2.024 0-3.671 1.638-3.671 3.65s1.647 3.649 3.671 3.649 3.671-1.637 3.671-3.649c0-2.013-1.647-3.65-3.671-3.65zm0 6.143c-1.388 0-2.514-1.116-2.514-2.494s1.125-2.494 2.514-2.494 2.514 1.116 2.514 2.494-1.125 2.494-2.514 2.494zm-8.911 8.317c-1.009 0-2.99-.927-2.99-1.78h5.981c0 .778-1.981 1.78-2.991 1.78zm-8.731-6.408c-2.438 0-4.421-1.975-4.421-4.401 0-2.427 1.983-4.402 4.421-4.402s4.421 1.975 4.421 4.402c0 2.426-1.983 4.401-4.421 4.401zm0-8.052c-2.024 0-3.671 1.638-3.671 3.65s1.647 3.649 3.671 3.649 3.671-1.637 3.671-3.649c0-2.013-1.647-3.65-3.671-3.65zm0 6.143c-1.388 0-2.514-1.116-2.514-2.494s1.125-2.494 2.514-2.494c1.388 0 2.514 1.116 2.514 2.494s-1.127 2.494-2.514 2.494zm8.731-10.611c-.66 0-1.196-.531-1.196-1.187s.536-1.187 1.196-1.187c.661 0 1.197.531 1.197 1.187s-.536 1.187-1.197 1.187z" fill-rule="evenodd" clip-rule="evenodd" fill="#fff"/></svg>